<svg xmlns="http://www.w3.org/2000/svg" width="204.376" height="419.845" viewBox="0 0 204.376 419.845"><g transform="translate(-1085 -7184.781)"><g transform="translate(-5371.44 11316.781)"><g transform="translate(6456.44 -4132)"><g transform="translate(0 0)"><path d="M299.376,161.545H246.03c0-26.857-21.979-49.342-48.83-49.342s-48.78,22.485-48.78,49.342H95C95,105.208,140.838,58.72,197.175,58.72S299.376,105.208,299.376,161.545Z" transform="translate(-95 -58.72)" fill="#e0e0e0"/><path d="M240.559,69.37a95.723,95.723,0,0,0-30.149,4.847l13.116,40.729a53.464,53.464,0,0,1,35.52.5l13.61-40.56A95.749,95.749,0,0,0,240.559,69.37Z" transform="translate(-138.327 -62.718)" fill="#d63d5e"/><path d="M382.292,191.308A95.636,95.636,0,0,0,366.122,138L331.77,163.67a53.089,53.089,0,0,1,7.726,27.644Z" transform="translate(-183.887 -88.483)" fill="#d63d5e"/><path d="M104.69,190.91h42.784a53.089,53.089,0,0,1,7.839-27.819L121.3,136.94a95.63,95.63,0,0,0-16.614,53.97Z" transform="translate(-98.638 -88.085)" fill="#d63d5e"/><path d="M131.29,114.486,165.3,140.638A53.714,53.714,0,0,1,193.8,117.859L180.688,77.13a96.617,96.617,0,0,0-49.4,37.356Z" transform="translate(-108.624 -65.631)" fill="#d63d5e"/><path d="M301.878,78.2,288.25,118.76a53.714,53.714,0,0,1,27.194,22.485l34.352-25.67A96.648,96.648,0,0,0,301.878,78.2Z" transform="translate(-167.549 -66.033)" fill="#d63d5e"/><g transform="translate(6.052 48.855)" opacity="0.5"><path d="M104.69,190.91h42.784a53.089,53.089,0,0,1,7.839-27.819L121.3,136.94a95.63,95.63,0,0,0-16.614,53.97Z" transform="translate(-104.69 -136.94)" fill="#fff"/></g><g transform="translate(22.666 11.499)" opacity="0.3"><path d="M131.29,114.486,165.3,140.638A53.714,53.714,0,0,1,193.8,117.859L180.688,77.13a96.617,96.617,0,0,0-49.4,37.356Z" transform="translate(-131.29 -77.13)" fill="#fff"/></g><g transform="translate(120.701 12.167)" opacity="0.3"><path d="M301.878,78.2,288.25,118.76a53.714,53.714,0,0,1,27.194,22.485l34.352-25.67A96.648,96.648,0,0,0,301.878,78.2Z" transform="translate(-288.25 -78.2)"/></g><g transform="translate(147.882 49.517)" opacity="0.5"><path d="M382.292,191.308A95.636,95.636,0,0,0,366.122,138L331.77,163.67a53.089,53.089,0,0,1,7.726,27.644Z" transform="translate(-331.77 -138)"/></g><path d="M280.8,112.145s.731,1.081,2.074,3.2a98.244,98.244,0,0,1,5.253,9.75c.5,1.105,1.049,2.261,1.549,3.516l.793,1.911c.25.668.5,1.343.756,2.042.543,1.38.987,2.867,1.505,4.372.231.774.462,1.561.693,2.367l.356,1.249c.1.418.206.837.312,1.249a90.24,90.24,0,0,1,2.124,11.011,98.008,98.008,0,0,1,.856,12.635v.1H254.084v-.125a53.021,53.021,0,0,0-11.8-33.365,54.239,54.239,0,0,0-14.878-12.754,55.159,55.159,0,0,0-9.294-4.235,53.294,53.294,0,0,0-70.528,50.354v.162h-43.1v-.162a96.5,96.5,0,0,1,35.7-74.788,103.684,103.684,0,0,1,9.106-6.564,96.69,96.69,0,0,1,19.343-9.406A93.6,93.6,0,0,1,188.3,69.948a95.692,95.692,0,0,1,63.145,13.691,92.187,92.187,0,0,1,9.868,7.039,98.063,98.063,0,0,1,7.545,6.814c2.142,2.18,3.96,4.185,5.471,5.983l2.049,2.5L278,108.116c.487.625.893,1.205,1.249,1.711l.862,1.249c.468.675.7,1.024.7,1.024s-.25-.337-.725-1.006l-.874-1.249c-.35-.5-.756-1.074-1.249-1.7a96.043,96.043,0,0,0-16.726-17.376,92.4,92.4,0,0,0-9.868-7.008A95.674,95.674,0,0,0,188.34,70.217a93.918,93.918,0,0,0-19.606,4.728,96.329,96.329,0,0,0-19.281,9.369,102.1,102.1,0,0,0-9.044,6.6,96.289,96.289,0,0,0-35.6,74.575l-.162-.156H147.43l-.162.162a53.445,53.445,0,0,1,19.43-41.221,52.463,52.463,0,0,1,9.432-6.278,53.232,53.232,0,0,1,42.084-3.142,55.064,55.064,0,0,1,9.369,4.266,54.408,54.408,0,0,1,14.946,12.829,53.277,53.277,0,0,1,11.836,33.54l-.125-.119h42.784l-.1.094a96.728,96.728,0,0,0-.831-12.61,89.818,89.818,0,0,0-2.1-10.993c-.1-.425-.206-.843-.306-1.249s-.237-.818-.35-1.218c-.237-.806-.462-1.6-.687-2.373-.518-1.524-.956-3.01-1.493-4.372l-.75-2.042-.787-1.911c-.493-1.249-1.043-2.411-1.536-3.516a102.429,102.429,0,0,0-5.271-9.806c-.625-1.068-1.18-1.874-1.518-2.411Z" transform="translate(-98.563 -62.628)" fill="#263238"/><path d="M114.59,203.418l.387-1.58,5.553,1.368.843-3.435,1.287.319-1.249,5Z" transform="translate(-102.354 -111.673)" fill="#fff"/><path d="M124.271,192.853a3.51,3.51,0,0,1-1.655.931,3.747,3.747,0,0,1-3.56-1.118,3.473,3.473,0,0,1-.831-1.705,4.372,4.372,0,0,1,1.174-3.747,3.648,3.648,0,0,1,5.222.187,3.585,3.585,0,0,1,.831,1.705,4.1,4.1,0,0,1-.137,2.024A4.022,4.022,0,0,1,124.271,192.853Zm-.219-3.323a1.986,1.986,0,0,0-.531-.987,2.5,2.5,0,0,0-2.224-.7,2,2,0,0,0-1,.518,2.342,2.342,0,0,0-.675,2.149,2.036,2.036,0,0,0,.531.993,2.5,2.5,0,0,0,2.224.693,1.992,1.992,0,0,0,1-.512A2.361,2.361,0,0,0,124.053,189.53Z" transform="translate(-103.698 -106.579)" fill="#fff"/><path d="M125.075,166.77l5.665,4.778-.625,1.624-5-.356,3.822,3.273-.656,1.618-7.4-.5.625-1.568,5.184.387-3.966-3.4.562-1.4,5.234.381-4.01-3.391Z" transform="translate(-104.72 -99.284)" fill="#fff"/><path d="M228.356,88.824l-.893-4.128-1.3,3.841-.718.15-2.711-2.879.868,4.041-1.493.319-1.48-6.87,1.318-.281,3.5,3.747,1.618-4.822,1.312-.281,1.5,6.87Z" transform="translate(-142.164 -67.332)" fill="#fff"/><path d="M242.53,85.8l.156,1.3-5.415.625-.831-7,5.284-.625.156,1.3-3.679.437.181,1.518,3.248-.387.15,1.249-3.248.387.194,1.68Z" transform="translate(-148.099 -66.746)" fill="#fff"/><path d="M247.84,79.786l3.2-.131a4.453,4.453,0,0,1,2.042.356,3.242,3.242,0,0,1,1.418,1.174,3.748,3.748,0,0,1,.15,3.7,3.266,3.266,0,0,1-1.312,1.293,4.585,4.585,0,0,1-2.011.518l-3.2.125Zm3.348,5.571a2.361,2.361,0,0,0,1.661-.656,2.08,2.08,0,0,0,.568-1.618,2.111,2.111,0,0,0-.693-1.568A2.367,2.367,0,0,0,251.013,81l-1.487.056.175,4.372Z" transform="translate(-152.379 -66.576)" fill="#fff"/><path d="M261.569,79.5l1.63.037-.175,7.039H261.4Z" transform="translate(-157.469 -66.521)" fill="#fff"/><path d="M267.5,85.947a3.229,3.229,0,0,1-.668-2.442l.287-3.935,1.624.119-.281,3.872c-.094,1.249.387,1.93,1.43,2a1.455,1.455,0,0,0,1.193-.375,2.093,2.093,0,0,0,.506-1.4l.281-3.872,1.605.112-.281,3.935a3.21,3.21,0,0,1-1.012,2.317A3.747,3.747,0,0,1,267.5,85.947Z" transform="translate(-159.498 -66.547)" fill="#fff"/><path d="M285.308,88.676l.7-4.166-2.636,3.079-.725-.125-1.461-3.691-.693,4.079L279,87.6l1.193-6.945,1.305.219,1.874,4.759,3.3-3.879,1.318.225-1.168,6.945Z" transform="translate(-164.077 -66.953)" fill="#fff"/><path d="M388.849,174.151l-6.552,2.586-.625-1.518,2.692-1.062-1.149-2.986-2.692,1.056-.593-1.511,6.552-2.586.625,1.518-2.586,1.018,1.174,2.973,2.58-1.018Z" transform="translate(-201.968 -99.794)" fill="#fff"/><path d="M391.171,180.69l.525,1.543-6.671,2.267-.525-1.543Z" transform="translate(-203.683 -104.51)" fill="#fff"/><path d="M391.406,191.826l.412,1.43-2.742.8a4.26,4.26,0,0,1-1.012-1.093,5.209,5.209,0,0,1-.625-1.393,4.084,4.084,0,0,1-.1-2.024,3.467,3.467,0,0,1,.862-1.68,3.785,3.785,0,0,1,3.61-1.049,3.5,3.5,0,0,1,1.63.968,4.223,4.223,0,0,1,1.006,1.786,4.478,4.478,0,0,1,.144,1.693,3.391,3.391,0,0,1-.518,1.468l-1.218-.737a2.43,2.43,0,0,0,.256-1.967,2.554,2.554,0,0,0-.625-1.074,1.968,1.968,0,0,0-.993-.556,2.3,2.3,0,0,0-1.212.044,2.355,2.355,0,0,0-1.037.625,2.073,2.073,0,0,0-.543,1,2.391,2.391,0,0,0,.056,1.218,2.592,2.592,0,0,0,.625,1.13Z" transform="translate(-204.719 -106.77)" fill="#fff"/><path d="M397.8,204.875l-6.87,1.5-.35-1.593,2.823-.625-.681-3.123-2.823.625-.35-1.593,6.87-1.505.35,1.593-2.717.593.687,3.123,2.711-.593Z" transform="translate(-205.579 -111.218)" fill="#fff"/><path d="M114.59,203.418l.387-1.58,5.553,1.368.843-3.435,1.287.319-1.249,5Z" transform="translate(-102.354 -111.673)" fill="#fff"/><path d="M124.271,192.853a3.51,3.51,0,0,1-1.655.931,3.747,3.747,0,0,1-3.56-1.118,3.473,3.473,0,0,1-.831-1.705,4.372,4.372,0,0,1,1.174-3.747,3.648,3.648,0,0,1,5.222.187,3.585,3.585,0,0,1,.831,1.705,4.1,4.1,0,0,1-.137,2.024A4.022,4.022,0,0,1,124.271,192.853Zm-.219-3.323a1.986,1.986,0,0,0-.531-.987,2.5,2.5,0,0,0-2.224-.7,2,2,0,0,0-1,.518,2.342,2.342,0,0,0-.675,2.149,2.036,2.036,0,0,0,.531.993,2.5,2.5,0,0,0,2.224.693,1.992,1.992,0,0,0,1-.512A2.361,2.361,0,0,0,124.053,189.53Z" transform="translate(-103.698 -106.579)" fill="#fff"/><path d="M125.075,166.77l5.665,4.778-.625,1.624-5-.356,3.822,3.273-.656,1.618-7.4-.5.625-1.568,5.184.387-3.966-3.4.562-1.4,5.234.381-4.01-3.391Z" transform="translate(-104.72 -99.284)" fill="#fff"/><path d="M228.356,88.824l-.893-4.128-1.3,3.841-.718.15-2.711-2.879.868,4.041-1.493.319-1.48-6.87,1.318-.281,3.5,3.747,1.618-4.822,1.312-.281,1.5,6.87Z" transform="translate(-142.164 -67.332)" fill="#fff"/><path d="M242.53,85.8l.156,1.3-5.415.625-.831-7,5.284-.625.156,1.3-3.679.437.181,1.518,3.248-.387.15,1.249-3.248.387.194,1.68Z" transform="translate(-148.099 -66.746)" fill="#fff"/><path d="M247.84,79.786l3.2-.131a4.453,4.453,0,0,1,2.042.356,3.242,3.242,0,0,1,1.418,1.174,3.748,3.748,0,0,1,.15,3.7,3.266,3.266,0,0,1-1.312,1.293,4.585,4.585,0,0,1-2.011.518l-3.2.125Zm3.348,5.571a2.361,2.361,0,0,0,1.661-.656,2.08,2.08,0,0,0,.568-1.618,2.111,2.111,0,0,0-.693-1.568A2.367,2.367,0,0,0,251.013,81l-1.487.056.175,4.372Z" transform="translate(-152.379 -66.576)" fill="#fff"/><path d="M261.569,79.5l1.63.037-.175,7.039H261.4Z" transform="translate(-157.469 -66.521)" fill="#fff"/><path d="M267.5,85.947a3.229,3.229,0,0,1-.668-2.442l.287-3.935,1.624.119-.281,3.872c-.094,1.249.387,1.93,1.43,2a1.455,1.455,0,0,0,1.193-.375,2.093,2.093,0,0,0,.506-1.4l.281-3.872,1.605.112-.281,3.935a3.21,3.21,0,0,1-1.012,2.317A3.747,3.747,0,0,1,267.5,85.947Z" transform="translate(-159.498 -66.547)" fill="#fff"/><path d="M285.308,88.676l.7-4.166-2.636,3.079-.725-.125-1.461-3.691-.693,4.079L279,87.6l1.193-6.945,1.305.219,1.874,4.759,3.3-3.879,1.318.225-1.168,6.945Z" transform="translate(-164.077 -66.953)" fill="#fff"/><path d="M388.849,174.151l-6.552,2.586-.625-1.518,2.692-1.062-1.149-2.986-2.692,1.056-.593-1.511,6.552-2.586.625,1.518-2.586,1.018,1.174,2.973,2.58-1.018Z" transform="translate(-201.968 -99.794)" fill="#fff"/><path d="M391.171,180.69l.525,1.543-6.671,2.267-.525-1.543Z" transform="translate(-203.683 -104.51)" fill="#fff"/><path d="M391.406,191.826l.412,1.43-2.742.8a4.26,4.26,0,0,1-1.012-1.093,5.209,5.209,0,0,1-.625-1.393,4.084,4.084,0,0,1-.1-2.024,3.467,3.467,0,0,1,.862-1.68,3.785,3.785,0,0,1,3.61-1.049,3.5,3.5,0,0,1,1.63.968,4.223,4.223,0,0,1,1.006,1.786,4.478,4.478,0,0,1,.144,1.693,3.391,3.391,0,0,1-.518,1.468l-1.218-.737a2.43,2.43,0,0,0,.256-1.967,2.554,2.554,0,0,0-.625-1.074,1.968,1.968,0,0,0-.993-.556,2.3,2.3,0,0,0-1.212.044,2.355,2.355,0,0,0-1.037.625,2.073,2.073,0,0,0-.543,1,2.391,2.391,0,0,0,.056,1.218,2.592,2.592,0,0,0,.625,1.13Z" transform="translate(-204.719 -106.77)" fill="#fff"/><path d="M397.8,204.875l-6.87,1.5-.35-1.593,2.823-.625-.681-3.123-2.823.625-.35-1.593,6.87-1.505.35,1.593-2.717.593.687,3.123,2.711-.593Z" transform="translate(-205.579 -111.218)" fill="#fff"/></g></g><circle cx="9.656" cy="9.656" r="9.656" transform="translate(6548.275 -4024.247) rotate(-76.63)" fill="#263238"/><path d="M154.155,162.434h0c-.221.612,1.493,3.123,75.856,30.9l4.1-9.756S154.614,161.238,154.155,162.434Z" transform="translate(6329.897 -4219.31)" fill="#263238"/></g><g transform="translate(2319.46 11503.064)"><g transform="translate(-1173.46 -4193.736)"><path d="M392.236,180.94s7.978,1.934,9.4,5.5,3.158,36.086,3.158,36.086,3.2,11.83,3.795,16.534,1.5,34.763,1.5,34.763l-8.052,2.406s-6.655-30.522-7-33.539-4.348-36.375-4.348-36.375Z" transform="translate(-328.571 -121.905)" fill="#ffbf9d"/><path d="M400.775,313.618a30.424,30.424,0,0,1-.637-8.267c.4-3.679,1.042-8.978,1.042-8.978a28.934,28.934,0,0,0,2.679-4.4c.827-1.893,7.8.694,7.8.694s2.48,12.516,2.307,13.277l-1.951,9.623s-5.564,4.406-6.713,3.629l-1.48.761s-2.48,0-.223-2.893a23.974,23.974,0,0,1,2.794-3.224l.909-3.191-1.653-5.109-1.43-.5L404.1,308.1s.777,4.894-.719,6.085S400.775,313.618,400.775,313.618Z" transform="translate(-330.199 -141.026)" fill="#ffbf9d"/><path d="M334.589,181.46s-7.655,1.653-11.227,6.895c-2.141,3.125-4.026,36.02-4.026,36.02s-2.993,11.814-3.5,16.493,1.075,32.291,1.075,32.291l7.664-.7s4.572-25.2,4.869-28.207,3.712-36.185,3.712-36.185Z" transform="translate(-315.583 -121.995)" fill="#ffbf9d"/><path d="M324.189,292.3a6.9,6.9,0,0,0,1.653,4.034,16.474,16.474,0,0,1,2.265,5.547s1.091,7.647,1.331,10.127.19,4.737-1.653,4.233-2.356-2.009-2.538-6.548l-1.017-2.422-1.058,1.8-.43,7.267s4.514,4.894,4.134,6.25-1.248,1.108-1.248,1.108l-.785.744-6.977-5.63-2.315-9.689,1.24-12.318.331-9.623,7.68-.827Z" transform="translate(-315.55 -140.173)" fill="#ffbf9d"/><path d="M334.288,282.59s-5.828,24.876-2.918,43.815,2.48,24.512,1.05,31.878-2.414,20.668,0,31.878,4.175,22.453,4.175,22.453l8.664-.992s3.406-20.353,4.324-31.6-2.4-12.343-.918-19.163,2.025-6.076,2.943-15.294,7.928-43.815,7.928-43.815Z" transform="translate(-318.15 -139.52)" fill="#ffbf9d"/><path d="M331.384,307.35a1.854,1.854,0,0,1,0,.471c0,.355-.066.827-.116,1.348-.141,1.157-.215,2.86-.3,4.96a153.892,153.892,0,0,0,.645,16.352c.554,6.374,1.248,12.128,1.653,16.311.2,2.092.347,3.786.355,4.96a11.29,11.29,0,0,1,0,1.356,1.994,1.994,0,0,1-.058.471c-.05,0,0-.653-.083-1.819s-.256-2.852-.488-4.96c-.479-4.134-1.224-9.92-1.777-16.311a133.472,133.472,0,0,1-.521-16.4c.116-2.092.231-3.795.422-4.96q.124-.827.2-1.339A1.81,1.81,0,0,1,331.384,307.35Z" transform="translate(-318.165 -143.811)" fill="#ff9a6c"/><path d="M335.167,435.62v3.547s-3.1,5.589-4.878,7.54-6.382,4.7-7.531,6.291-.182,7.44,4.7,8.267,8.78-5.68,11.574-8.606a19.1,19.1,0,0,1,5.671-4.134c1.066-.7-1.042-11.433-1.042-11.433Z" transform="translate(-316.723 -166.039)" fill="#ffbf9d"/><path d="M386.942,283.069s9.454,24.479,6.536,43.419S391,351,392.428,358.366s2.422,20.668,0,31.878-4.439,22.453-4.439,22.453h-8.573s-3.224-21.346-4.134-32.589,2.389-12.343.918-19.163-2.05-6.01-2.96-15.261-7.92-43.815-7.92-43.815Z" transform="translate(-324.175 -139.603)" fill="#ffbf9d"/><path d="M391.008,435.62v3.547s3.108,5.589,4.878,7.54,6.382,4.7,7.54,6.291.174,7.44-4.7,8.267-8.78-5.68-11.524-8.606a19.2,19.2,0,0,0-5.679-4.134c-1.058-.7,1.042-11.433,1.042-11.433Z" transform="translate(-326.93 -166.039)" fill="#ffbf9d"/><path d="M332.97,182.1l3.984,42.506.784,32.343,42.609,1.03,2.681-32.2,3.48-36.987-3.737-8.639-17.179-3.985-17.882-.132Z" transform="translate(-318.569 -121.054)" fill="#ffbf9d"/><path d="M353.917,219.338a32.951,32.951,0,0,1-5.2.413,33.784,33.784,0,0,1-5.216,0,33.067,33.067,0,0,1,5.2-.413,32.54,32.54,0,0,1,5.217,0Z" transform="translate(-320.394 -128.541)" fill="#ff9a6c"/><path d="M383.957,219.639a29.563,29.563,0,0,1-4.886-.074,28.555,28.555,0,0,1-4.861-.479,56.52,56.52,0,0,1,9.747.554Z" transform="translate(-325.715 -128.511)" fill="#ff9a6c"/><path d="M363.9,262.051c0,.05-.322,0-.455-.471a.917.917,0,0,1,.116-.752.931.931,0,0,1,1.6.942c-.223.4-.546.405-.546.355a1.731,1.731,0,0,0,.273-.471.6.6,0,1,0-1.157-.124C363.765,261.844,363.947,262,363.9,262.051Z" transform="translate(-323.844 -135.68)" fill="#ff9a6c"/><path d="M334.395,199.55a2.871,2.871,0,0,1,.05.6c0,.438.041,1.017.066,1.744.066,1.513.174,3.7.43,6.39s.653,5.886,1.05,9.449c.19,1.777.355,3.654.43,5.605s0,3.985-.074,6.043c-.256,8.267,1.656,26.28,1.541,27.793q-.091,1.083-.149,1.736a3.913,3.913,0,0,1-.074.6,3.169,3.169,0,0,1,0-.612c0-.438.041-1.017.074-1.744.066-1.554-2.029-19.534-1.772-27.793.066-2.067.165-4.067.083-6.01s-.223-3.811-.405-5.589c-.38-3.555-.761-6.754-.967-9.458s-.281-4.9-.3-6.415v-1.744A3.093,3.093,0,0,1,334.395,199.55Z" transform="translate(-318.811 -125.13)" fill="#ff9a6c"/><path d="M395.3,197.16a4.91,4.91,0,0,1,0,.645c0,.413,0,1.033,0,1.835,0,1.6-.132,3.9-.4,6.738s-.711,6.209-1.182,9.92c-.232,1.86-.455,3.828-.587,5.861-.066,1.017-.1,2.059-.107,3.108s0,2.125,0,3.216c-.05,8.68-2.56,30.245-2.6,30.7a3.3,3.3,0,0,1-.05.645,4.921,4.921,0,0,1,0-.645c0-.455,2.287-22.011,2.287-30.691v-3.224c0-1.066.05-2.108.116-3.133.141-2.05.372-4.018.612-5.886.488-3.737.976-7.093,1.273-9.92s.446-5.126.529-6.721c0-.761.05-1.372.074-1.827A3.3,3.3,0,0,1,395.3,197.16Z" transform="translate(-328.514 -124.715)" fill="#ff9a6c"/><path d="M351.909,166.066l-.413-33.688c-.372-8.375,4.191-15.575,12.574-15.707h.777a14.988,14.988,0,0,1,14.343,14.409c.281,7.258.087,10.568-.7,14.528-.277,4.977-2.376,7.444-4.2,10.137a10.4,10.4,0,0,1-3.365,3.46v7.25L370.477,172l-4.274-1.653Z" transform="translate(-321.775 -110.767)" fill="#ffbf9d"/><path d="M372.832,167.042a19.428,19.428,0,0,1-10.342-3.522s2.273,6.151,10.326,5.787Z" transform="translate(-323.684 -118.886)" fill="#ff9a6c"/><path d="M380.17,141.923a1.149,1.149,0,0,1-1.149,1.116,1.091,1.091,0,0,1-1.141-1.083,1.149,1.149,0,0,1,1.149-1.116,1.091,1.091,0,0,1,1.141,1.083Z" transform="translate(-326.351 -114.955)" fill="#263238"/><path d="M381.776,137.727c-.141.149-.984-.537-2.224-.579s-2.166.529-2.29.372.091-.331.5-.6a3.141,3.141,0,0,1,1.844-.488,3.026,3.026,0,0,1,1.769.653C381.735,137.363,381.851,137.636,381.776,137.727Z" transform="translate(-326.238 -114.19)" fill="#263238"/><path d="M367.008,141.653a1.149,1.149,0,0,1-1.157,1.116,1.108,1.108,0,0,1-1.141-1.083,1.149,1.149,0,0,1,1.157-1.116,1.1,1.1,0,0,1,1.141,1.083Z" transform="translate(-324.069 -114.909)" fill="#263238"/><path d="M367.114,137.437c-.149.149-.992-.537-2.224-.579s-2.166.529-2.3.372.091-.331.5-.6a3.142,3.142,0,0,1,1.844-.488,3.034,3.034,0,0,1,1.761.653C367.056,137.1,367.189,137.379,367.114,137.437Z" transform="translate(-323.695 -114.14)" fill="#263238"/><path d="M372.969,147.25a7.787,7.787,0,0,1,2.017-.281c.322,0,.62-.066.686-.281a1.653,1.653,0,0,0-.174-.942l-.827-2.48a40.937,40.937,0,0,1-1.835-6.366,40.921,40.921,0,0,1,2.34,6.209c.281.827.546,1.653.827,2.48a1.819,1.819,0,0,1,.116,1.248.769.769,0,0,1-.537.438,2.207,2.207,0,0,1-.537.058A8.707,8.707,0,0,1,372.969,147.25Z" transform="translate(-325.475 -114.273)" fill="#263238"/><path d="M367.565,132.759c-.182.306-1.364-.074-2.827-.165s-2.687.083-2.819-.248c-.058-.157.2-.43.728-.661a4.67,4.67,0,0,1,2.182-.347,4.737,4.737,0,0,1,2.116.653C367.424,132.3,367.647,132.61,367.565,132.759Z" transform="translate(-323.584 -113.306)" fill="#263238"/><path d="M381.954,133.3c-.256.273-1.257-.041-2.48-.091s-2.24.132-2.48-.165c-.1-.149.066-.422.521-.678a4.134,4.134,0,0,1,3.985.207C381.954,132.867,382.062,133.165,381.954,133.3Z" transform="translate(-326.193 -113.415)" fill="#263238"/><path d="M350.844,142.5c-.141-.066-5.456-1.86-5.514,3.637s5.489,4.423,5.5,4.266S350.844,142.5,350.844,142.5Z" transform="translate(-320.711 -115.186)" fill="#ffbf9d"/><path d="M349.418,148.674a2.219,2.219,0,0,1-.256.141,1,1,0,0,1-.719,0,2.381,2.381,0,0,1-1.075-2.141,3.183,3.183,0,0,1,.281-1.372,1.108,1.108,0,0,1,.728-.727.5.5,0,0,1,.562.265c.074.157,0,.265.066.281s.116-.091.074-.322a.62.62,0,0,0-.215-.347.7.7,0,0,0-.529-.141,1.331,1.331,0,0,0-1.009.827,3.257,3.257,0,0,0-.347,1.529,2.48,2.48,0,0,0,1.381,2.389.992.992,0,0,0,.876-.141C349.409,148.806,349.475,148.682,349.418,148.674Z" transform="translate(-320.995 -115.555)" fill="#ff9a6c"/><path d="M388.548,122.319a1.331,1.331,0,0,0-.6-.769,4.076,4.076,0,0,0-2.058-.355,11.574,11.574,0,0,1-5.018-1.323,5.588,5.588,0,0,0,1.488-1.017,3.456,3.456,0,0,0,1.033-3.431.769.769,0,0,0-.422-.529c-.355-.116-.678.231-.926.513a2.984,2.984,0,0,1-2.819,1.149,4.96,4.96,0,0,1-2.083-.637l-.066-.083-.827-.827h0a18.112,18.112,0,0,0-5.63-4.274,18.692,18.692,0,0,0-9.978-.9c-2.811.7-5.349,2.943-5.787,5.787a5.8,5.8,0,0,0-5.837-.612h-.05c-2.141.736-3.381,2.976-4.034,5.142l-.1.355a8.458,8.458,0,0,1-2.9,2.769c-.207.116-.438.265-.471.5s.174.43.364.57a4.216,4.216,0,0,0,1.711.736,9.214,9.214,0,0,1-.719,1.5c-.248.405-.537.885-.331,1.314a.9.9,0,0,0,.934.422,2.7,2.7,0,0,0,1-.438c-.248.562-.488,1.133-.736,1.653a5.134,5.134,0,0,0,2.323-.124c.43,2.034.727,5.787,1.232,7.184a7.313,7.313,0,0,1,2.555.141c.942.331.562,2.009,1.81,1.546.637-.24,1.653-2.621,1.852-3.257a31.415,31.415,0,0,0,1.5-13.285,9.92,9.92,0,0,1,3.15-2.216l-.1.083c2.257-.761,4.811-1.5,6.936-.413,1.653.827,2.6,2.563,3.828,3.952a11.524,11.524,0,0,0,8.449,4.233c.289,2.431.339,6.407.43,8.672l1.992-4.514h0a7.743,7.743,0,0,0,.422-.827l.041-.083h0a12.473,12.473,0,0,1,.653-1.281h0a1.414,1.414,0,0,0,2.092-1.868,2.844,2.844,0,0,0-.678-.694,2.249,2.249,0,0,0,2.133.57,1.761,1.761,0,0,0,1.265-1.72,1.48,1.48,0,0,0-.876-1.207,5.109,5.109,0,0,0,2.877-.6A1.311,1.311,0,0,0,388.548,122.319Z" transform="translate(-320.039 -109.53)" fill="#263238"/><path d="M358.2,118a8.371,8.371,0,0,0-.827.736,5.787,5.787,0,0,0-1.265,2.654,10.358,10.358,0,0,0-.231,2.05c0,.736.041,1.538.091,2.373a21.541,21.541,0,0,1,0,2.645,9.175,9.175,0,0,1-.19,1.389,3.009,3.009,0,0,1-.587,1.348,1.215,1.215,0,0,1-1.141.364,1.769,1.769,0,0,1-1.017-.587,4.2,4.2,0,0,1-.752-2.059h.165a6.689,6.689,0,0,1-1,1.653,2.431,2.431,0,0,1-1.571.827,1.653,1.653,0,0,1-.827-.157,1.314,1.314,0,0,1-.562-.562,1.5,1.5,0,0,1-.165-.719,1.009,1.009,0,0,1,.265-.62l.091.074a5.2,5.2,0,0,1-1.744,1.281,3.9,3.9,0,0,1-.546.2,1.115,1.115,0,0,1-.19.05l.182-.074c.124-.05.3-.124.521-.231a5.374,5.374,0,0,0,1.653-1.3l.091.074a1.033,1.033,0,0,0-.074,1.2,1.265,1.265,0,0,0,.5.5,1.364,1.364,0,0,0,.752.132,2.207,2.207,0,0,0,1.463-.827,6.614,6.614,0,0,0,.967-1.653l.116-.256.05.273a4.009,4.009,0,0,0,.719,1.968,1.653,1.653,0,0,0,.909.529,1.009,1.009,0,0,0,.967-.314,2.72,2.72,0,0,0,.537-1.257,8.611,8.611,0,0,0,.2-1.364,21.235,21.235,0,0,0,0-2.621c-.041-.827-.091-1.653-.074-2.389a10.379,10.379,0,0,1,.256-2.067,5.638,5.638,0,0,1,1.348-2.679A3.133,3.133,0,0,1,358.2,118Z" transform="translate(-320.861 -110.997)" fill="#455a64"/><path d="M385.6,125.228l-.066.05-.2.149a2.353,2.353,0,0,1-.347.215,4.435,4.435,0,0,1-.488.248,7.134,7.134,0,0,1-3.456.579,9.143,9.143,0,0,1-4.845-1.844,15.955,15.955,0,0,1-4.134-4.861c-.579-.984-1.042-1.992-1.562-2.918a10.416,10.416,0,0,0-1.769-2.48,5.514,5.514,0,0,0-2.307-1.438,4.183,4.183,0,0,0-1.224-.157,4.381,4.381,0,0,0-1.116.207,4.622,4.622,0,0,0-1.695.992,4.787,4.787,0,0,0-.926,1.166,5.116,5.116,0,0,0-.422,1.207s0,0,0-.083a.558.558,0,0,1,.041-.248,3.936,3.936,0,0,1,.322-.909,4.44,4.44,0,0,1,.909-1.207,4.663,4.663,0,0,1,1.728-1.042,3.993,3.993,0,0,1,1.157-.223,3.952,3.952,0,0,1,1.265.149,5.572,5.572,0,0,1,2.389,1.463,10.863,10.863,0,0,1,1.811,2.48c.521.934.992,1.943,1.554,2.91a15.773,15.773,0,0,0,4.067,4.82,9.044,9.044,0,0,0,4.745,1.852,7.209,7.209,0,0,0,3.414-.513,11.791,11.791,0,0,0,1.149-.562Z" transform="translate(-323.435 -110.066)" fill="#455a64"/><path d="M389.907,123.6a1.6,1.6,0,0,1-.289.19,6.306,6.306,0,0,1-.827.43,9.218,9.218,0,0,1-1.364.43,10,10,0,0,1-1.736.207,9.532,9.532,0,0,1-1.736-.141,7.844,7.844,0,0,1-1.381-.372,5.9,5.9,0,0,1-.876-.389,1.34,1.34,0,0,1-.3-.182s.455.2,1.215.446a10.03,10.03,0,0,0,1.364.331,11.07,11.07,0,0,0,1.711.116,10.747,10.747,0,0,0,1.7-.19,9.308,9.308,0,0,0,1.348-.38C389.452,123.814,389.89,123.566,389.907,123.6Z" transform="translate(-326.961 -111.967)" fill="#455a64"/><path d="M4.769.611c-.066.2-1.364-.3-2.72.455S.305,3.256.115,3.2s-.132-.413.083-1A3.464,3.464,0,0,1,1.735.388,3.026,3.026,0,0,1,3.984.1C4.546.281,4.811.553,4.769.611Z" transform="matrix(0.839, 0.545, -0.545, 0.839, 44.659, 34.786)" fill="#263238"/><path d="M335.912,276.145s-5.527,11.683-5.753,34.618c0,0-1.612,29.467-1.283,55a351.393,351.393,0,0,0,2.941,42.978,17.959,17.959,0,0,0,7.691,2.488,36,36,0,0,0,9.953-1.131s2.667-18.4,4.524-44.335,2.9-59.4,2.9-59.4L369.14,408.744s5.923,5.468,19.679-1.583V319.17s-2.545-25.547-2.846-27.68c-.357-2.564-3.078-11.779-3.078-11.779l-3.186-6.892c-17.534.389-26.694,2.64-43-.634Z" transform="translate(-317.852 -137.717)" fill="#008ad8"/><path d="M46.425.62a1.767,1.767,0,0,1-.459.141l-1.33.331c-.575.141-1.291.289-2.115.446s-1.773.347-2.823.5c-2.1.355-4.611.645-7.4.885s-5.879.322-9.114.289A96.52,96.52,0,0,1,6.7,1.6C5.646,1.43,4.713,1.2,3.88,1.025S2.325.67,1.781.513L.459.157A2.169,2.169,0,0,1,0,0,1.668,1.668,0,0,1,.474.074L1.812.355c.575.132,1.283.289,2.115.438s1.765.364,2.807.521A106.461,106.461,0,0,0,23.22,2.794c3.227,0,6.3-.066,9.091-.256s5.3-.471,7.388-.827c1.05-.132,1.991-.289,2.823-.438s1.555-.256,2.123-.38L45.99.645A1.984,1.984,0,0,1,46.425.62Z" transform="matrix(1, -0.017, 0.017, 1, 17.32, 138.678)" fill="#263238"/><path d="M353.464,302.98c-.074,0-.331-.752-.942-1.9a15.782,15.782,0,0,0-7.25-6.886c-1.182-.554-1.968-.777-1.951-.827s.207,0,.57.083a10.428,10.428,0,0,1,1.5.488,14.137,14.137,0,0,1,4.357,2.827,13.93,13.93,0,0,1,3.034,4.2,8.831,8.831,0,0,1,.562,1.472A1.578,1.578,0,0,1,353.464,302.98Z" transform="translate(-320.362 -141.384)" fill="#263238"/><path d="M239.8,306.206a1.817,1.817,0,0,1-.432.041l-1.223.04-4.424.054h-.135V306.2c0-2.337-.068-5.174-.108-8.234-.041-3.951-.054-7.524-.047-10.132v-3.066a7.934,7.934,0,0,1,.054-1.128,6.363,6.363,0,0,1,.081,1.128c0,.777.047,1.81.081,3.066.054,2.587.108,6.167.149,10.132,0,3.06.034,5.89.047,8.234l-.142-.142,4.424.061,1.223.041a1.818,1.818,0,0,1,.453.047Z" transform="translate(-195.5 -141.747)" fill="#263238"/><path d="M239,292.075a1.4,1.4,0,1,1-1.4-1.4A1.4,1.4,0,0,1,239,292.075Z" transform="translate(-196.397 -144.029)" fill="#fff"/><path d="M239,302.135a1.4,1.4,0,1,1-1.4-1.4A1.4,1.4,0,0,1,239,302.135Z" transform="translate(-196.397 -147.294)" fill="#fff"/></g><path d="M-1143.294-4127.368s2.958,5.916,9.222,5.916,10.44-5.916,10.44-5.916,9.027,1.729,15.486,3.48c3.7,1,5.967,1.623,8.526,5.394,2.711,4,2.933,9.942,3.306,15.834.5,7.854.87,15.312.87,15.312l-13.4.7s.783,21.619,1.566,34.452,1.566,16.878,1.566,16.878-4.959,3-17.922,2.262c-6.624-.378-13.441-2.871-21.924-4.176s-13.05,1.914-13.05,1.914,1.522-2.567,2.262-14.79.7-34.1.7-34.1l-14.79-.87s.87-5.746,1.218-12.876c.252-5.171.184-12.863,3.132-17.4,2.512-3.866,7.482-6.09,7.482-6.09Z" transform="translate(-0.524 -11.501)" fill="#d63d5e"/><path d="M4.483,0a2.871,2.871,0,0,0-.05.6c0,.438-.041,1.017-.066,1.744C4.3,3.861,1.5,12.051,0,20.251H.38s4.1-16.39,4.12-17.9V.6A3.093,3.093,0,0,0,4.483,0Z" transform="matrix(0.978, -0.208, 0.208, 0.978, -1113.431, -4117.389)" fill="#777c88" opacity="0.44"/><path d="M4.483,20.251a2.87,2.87,0,0,1-.05-.6c0-.438-.041-1.017-.066-1.744C4.3,16.39,1.5,8.2,0,0H.38s4.1,16.39,4.12,17.9v1.744A3.091,3.091,0,0,1,4.483,20.251Z" transform="matrix(-0.978, -0.208, 0.208, -0.978, -1156.144, -4095.1)" fill="#777c88" opacity="0.44"/></g></g></svg>